M48
; DRILL file {KiCad 8.0.8} date 2025-03-04T19:25:50+1100
; FORMAT={-:-/ absolute / metric / decimal}
; #@! TF.CreationDate,2025-03-04T19:25:50+11:00
; #@! TF.GenerationSoftware,Kicad,Pcbnew,8.0.8
; #@! TF.FileFunction,Plated,1,2,PTH
FMAT,2
METRIC
; #@! TA.AperFunction,Plated,PTH,ViaDrill
T1C0.300
; #@! TA.AperFunction,Plated,PTH,ComponentDrill
T2C0.600
; #@! TA.AperFunction,Plated,PTH,ComponentDrill
T3C0.800
; #@! TA.AperFunction,Plated,PTH,ComponentDrill
T4C1.500
%
G90
G05
T1
X207.327Y-98.2
X214.5Y-97.3
X214.5Y-99.0
X226.377Y-98.8
X233.5Y-96.9
X233.6Y-99.5
X245.427Y-99.2
X252.5Y-97.4
X252.5Y-99.6
X256.15Y-65.525
X256.35Y-30.25
X257.6Y-53.1
X258.2Y-35.6
X258.425Y-43.975
X258.5Y-42.775
X258.75Y-61.95
X258.8Y-63.2
X260.024Y-42.651
X260.225Y-44.2
X260.4Y-53.1
X260.626Y-42.049
X261.075Y-44.2
X261.975Y-107.5
X262.6Y-32.6
X263.55Y-30.2
X263.8Y-66.75
X264.477Y-99.6
X264.8Y-85.9
X265.925Y-82.175
X265.95Y-80.28
X266.0Y-67.4
X266.0Y-68.7
X267.9Y-73.2
X268.324Y-97.624
X270.25Y-86.9
X271.9Y-114.2
X271.9Y-120.149
X271.9Y-121.349
X272.1Y-111.9
X272.15Y-91.8
X272.4Y-99.7
X274.05Y-100.125
X274.075Y-101.325
X274.6Y-80.409
X274.6Y-82.5
X275.2Y-86.45
X275.45Y-80.409
X275.45Y-82.5
X275.6Y-91.35
X275.875Y-64.6
X276.275Y-61.668
X276.275Y-63.43
X277.0Y-101.325
X277.0Y-100.125
X277.125Y-61.668
X277.125Y-63.43
X277.8Y-100.1
X277.8Y-101.325
X278.6Y-100.1
X278.6Y-101.325
X279.9Y-98.7
X280.0Y-62.0
X280.0Y-63.2
X280.3Y-85.8
X281.175Y-101.325
X281.225Y-100.125
X284.4Y-80.875
X284.4Y-82.075
X285.2Y-80.875
X285.2Y-82.075
X285.8Y-63.2
X287.1Y-80.875
X287.1Y-82.075
X287.359Y-103.259
X287.7Y-68.9
X291.45Y-104.175
X302.577Y-85.6
X326.39Y-86.5
T3
X31.7Y-113.139
X31.7Y-116.949
X31.839Y-66.5
X33.4Y-75.839
X33.4Y-79.649
X33.739Y-47.1
X35.649Y-66.5
X36.0Y-95.139
X36.0Y-98.949
X37.549Y-47.1
X47.7Y-37.639
X47.7Y-41.449
X47.8Y-56.239
X47.8Y-60.049
X49.8Y-132.839
X49.8Y-136.649
X55.2Y-132.839
X55.2Y-136.649
X55.3Y-75.739
X55.3Y-79.549
X61.7Y-95.039
X61.7Y-98.849
X66.7Y-37.739
X66.7Y-41.549
X67.0Y-56.739
X67.0Y-60.549
X71.6Y-113.739
X71.6Y-117.549
X76.2Y-76.039
X76.2Y-79.849
X79.2Y-132.839
X79.2Y-136.649
X81.0Y-95.139
X81.0Y-98.949
X85.9Y-37.539
X85.9Y-41.349
X85.9Y-56.539
X85.9Y-60.349
X90.6Y-113.739
X90.6Y-117.549
X95.4Y-75.839
X95.4Y-79.649
X100.2Y-95.039
X100.2Y-98.849
X104.8Y-37.639
X104.8Y-41.449
X105.0Y-56.739
X105.0Y-60.549
X109.7Y-113.939
X109.7Y-117.749
X114.3Y-75.739
X114.3Y-79.549
X119.2Y-95.039
X119.2Y-98.849
X123.8Y-37.639
X123.8Y-41.449
X123.9Y-56.539
X123.9Y-60.349
X128.6Y-113.939
X128.6Y-117.749
X133.3Y-75.639
X133.3Y-79.449
X138.2Y-94.939
X138.2Y-98.749
X142.8Y-37.439
X142.8Y-41.249
X143.0Y-56.639
X143.0Y-60.449
X147.8Y-113.839
X147.8Y-117.649
X149.9Y-132.839
X149.9Y-136.649
X152.5Y-75.739
X152.5Y-79.549
X157.2Y-95.139
X157.2Y-98.949
X162.0Y-37.539
X162.0Y-41.349
X162.2Y-56.439
X162.2Y-60.249
X166.8Y-113.939
X166.8Y-117.749
X171.4Y-75.639
X171.4Y-79.449
X176.2Y-95.039
X176.2Y-98.849
X181.1Y-56.339
X181.1Y-60.149
X181.2Y-37.539
X181.2Y-41.349
X185.8Y-113.839
X185.8Y-117.649
X190.6Y-75.539
X190.6Y-79.349
X195.4Y-94.539
X195.4Y-98.349
X200.2Y-56.539
X200.2Y-60.349
X200.3Y-37.439
X200.3Y-41.249
X204.8Y-113.939
X204.8Y-117.749
X209.5Y-75.439
X209.5Y-79.249
X214.5Y-91.839
X214.5Y-95.649
X219.3Y-56.704
X219.3Y-60.514
X219.8Y-37.039
X219.8Y-40.849
X221.6Y-132.939
X221.6Y-136.749
X223.9Y-113.939
X223.9Y-117.749
X228.9Y-75.139
X228.9Y-78.949
X233.5Y-90.939
X233.5Y-94.749
X238.3Y-56.139
X238.3Y-59.949
X238.7Y-37.439
X238.7Y-41.249
X242.8Y-113.639
X242.8Y-117.449
X245.3Y-132.939
X245.3Y-136.749
X248.0Y-75.239
X248.0Y-79.049
X252.5Y-91.939
X252.5Y-95.749
X256.7Y-56.239
X256.7Y-60.049
X269.2Y-116.939
X269.2Y-120.749
X271.039Y-66.4
X274.849Y-66.4
X276.2Y-39.139
X276.2Y-42.949
X276.6Y-132.939
X276.6Y-136.749
X279.851Y-46.9
X283.661Y-46.9
X284.1Y-94.339
X284.1Y-98.149
X291.4Y-75.439
X291.4Y-79.249
X295.3Y-132.939
X295.3Y-136.749
X295.5Y-38.539
X295.5Y-42.349
X296.0Y-113.639
X296.0Y-117.449
X304.3Y-56.539
X304.3Y-60.349
X314.1Y-94.939
X314.1Y-98.749
X314.3Y-114.039
X314.3Y-117.849
X314.4Y-38.639
X314.4Y-42.449
X314.4Y-75.439
X314.4Y-79.249
X314.4Y-132.939
X314.4Y-136.749
X314.8Y-56.339
X314.8Y-60.149
T4
X34.29Y-35.56
X34.29Y-54.61
X36.671Y-130.81
X39.052Y-73.66
X40.64Y-33.02
X40.64Y-52.07
X41.434Y-92.71
X43.021Y-128.27
X45.402Y-71.12
X46.196Y-111.76
X47.784Y-90.17
X52.546Y-109.22
X53.34Y-35.56
X53.34Y-54.61
X59.69Y-33.02
X59.69Y-52.07
X60.484Y-130.81
X62.865Y-73.66
X66.834Y-128.27
X67.627Y-92.71
X69.215Y-71.12
X72.39Y-35.56
X72.39Y-54.61
X73.977Y-90.17
X77.153Y-111.76
X78.74Y-33.02
X78.74Y-52.07
X81.915Y-73.66
X83.502Y-109.22
X84.296Y-130.81
X86.677Y-92.71
X88.265Y-71.12
X90.646Y-128.27
X91.44Y-35.56
X91.44Y-54.61
X93.027Y-90.17
X96.203Y-111.76
X97.79Y-33.02
X97.79Y-52.07
X100.965Y-73.66
X102.552Y-109.22
X105.727Y-92.71
X107.315Y-71.12
X110.49Y-35.56
X110.49Y-54.61
X112.078Y-90.17
X115.252Y-111.76
X116.84Y-33.02
X116.84Y-52.07
X120.015Y-73.66
X121.602Y-109.22
X124.777Y-92.71
X126.365Y-71.12
X129.54Y-35.56
X129.54Y-54.61
X131.127Y-90.17
X134.302Y-111.76
X135.89Y-33.02
X135.89Y-52.07
X139.065Y-73.66
X140.653Y-109.22
X143.827Y-92.71
X145.415Y-71.12
X148.59Y-35.56
X148.59Y-54.61
X150.177Y-90.17
X153.352Y-111.76
X154.94Y-33.02
X154.94Y-52.07
X155.734Y-130.81
X158.115Y-73.66
X159.702Y-109.22
X162.084Y-128.27
X162.877Y-92.71
X164.465Y-71.12
X167.64Y-35.56
X167.64Y-54.61
X169.227Y-90.17
X172.403Y-111.76
X173.99Y-33.02
X173.99Y-52.07
X177.165Y-73.66
X178.752Y-109.22
X181.927Y-92.71
X183.515Y-71.12
X186.69Y-35.56
X186.69Y-54.61
X188.278Y-90.17
X191.452Y-111.76
X193.04Y-33.02
X193.04Y-52.07
X196.215Y-73.66
X197.802Y-109.22
X200.977Y-92.71
X202.565Y-71.12
X205.74Y-35.56
X205.74Y-54.61
X207.327Y-90.17
X210.502Y-111.76
X212.09Y-33.02
X212.09Y-52.07
X215.265Y-73.66
X216.852Y-109.22
X220.028Y-92.71
X221.615Y-71.12
X224.79Y-35.56
X224.79Y-54.61
X226.377Y-90.17
X227.171Y-130.81
X229.552Y-111.76
X231.14Y-33.02
X231.14Y-52.07
X233.521Y-128.27
X234.315Y-73.66
X235.903Y-109.22
X239.077Y-92.71
X240.665Y-71.12
X243.84Y-35.56
X243.84Y-54.61
X245.427Y-90.17
X248.602Y-111.76
X250.19Y-33.02
X250.19Y-52.07
X250.984Y-130.81
X253.365Y-73.66
X254.952Y-109.22
X257.334Y-128.27
X258.127Y-92.71
X259.715Y-71.12
X262.89Y-35.56
X262.89Y-54.61
X264.477Y-90.17
X269.24Y-33.02
X269.24Y-52.07
X272.415Y-73.66
X274.796Y-111.76
X278.765Y-71.12
X281.146Y-109.22
X281.94Y-35.56
X281.94Y-130.81
X288.29Y-33.02
X288.29Y-128.27
X289.084Y-92.71
X291.465Y-54.61
X295.434Y-90.17
X296.227Y-73.66
X297.815Y-52.07
X300.99Y-35.56
X300.99Y-111.76
X300.99Y-130.81
X302.577Y-71.12
X307.34Y-33.02
X307.34Y-109.22
X307.34Y-128.27
X320.04Y-35.56
X320.04Y-54.61
X320.04Y-73.66
X320.04Y-92.71
X320.04Y-111.76
X320.04Y-130.81
X326.39Y-33.02
X326.39Y-52.07
X326.39Y-71.12
X326.39Y-90.17
X326.39Y-109.22
X326.39Y-128.27
T2
G00X255.53Y-23.5
M15
G01X255.53Y-24.8
M16
G05
G00X255.53Y-27.475
M15
G01X255.53Y-28.475
M16
G05
G00X264.17Y-23.5
M15
G01X264.17Y-24.8
M16
G05
G00X264.17Y-27.475
M15
G01X264.17Y-28.475
M16
G05
M30
