G04 #@! TF.GenerationSoftware,KiCad,Pcbnew,8.0.8*
G04 #@! TF.CreationDate,2025-03-04T19:25:46+11:00*
G04 #@! TF.ProjectId,jethro_mk2,6a657468-726f-45f6-9d6b-322e6b696361,rev?*
G04 #@! TF.SameCoordinates,Original*
G04 #@! TF.FileFunction,Soldermask,Bot*
G04 #@! TF.FilePolarity,Negative*
%FSLAX46Y46*%
G04 Gerber Fmt 4.6, Leading zero omitted, Abs format (unit mm)*
G04 Created by KiCad (PCBNEW 8.0.8) date 2025-03-04 19:25:46*
%MOMM*%
%LPD*%
G01*
G04 APERTURE LIST*
G04 Aperture macros list*
%AMRoundRect*
0 Rectangle with rounded corners*
0 $1 Rounding radius*
0 $2 $3 $4 $5 $6 $7 $8 $9 X,Y pos of 4 corners*
0 Add a 4 corners polygon primitive as box body*
4,1,4,$2,$3,$4,$5,$6,$7,$8,$9,$2,$3,0*
0 Add four circle primitives for the rounded corners*
1,1,$1+$1,$2,$3*
1,1,$1+$1,$4,$5*
1,1,$1+$1,$6,$7*
1,1,$1+$1,$8,$9*
0 Add four rect primitives between the rounded corners*
20,1,$1+$1,$2,$3,$4,$5,0*
20,1,$1+$1,$4,$5,$6,$7,0*
20,1,$1+$1,$6,$7,$8,$9,0*
20,1,$1+$1,$8,$9,$2,$3,0*%
G04 Aperture macros list end*
%ADD10C,3.048000*%
%ADD11C,3.987800*%
%ADD12C,1.750000*%
%ADD13C,4.000000*%
%ADD14C,2.500000*%
%ADD15R,1.600000X1.600000*%
%ADD16O,1.600000X1.600000*%
%ADD17RoundRect,0.250000X0.250000X0.475000X-0.250000X0.475000X-0.250000X-0.475000X0.250000X-0.475000X0*%
%ADD18R,1.000000X2.800000*%
%ADD19C,0.600000*%
%ADD20R,1.000000X2.000000*%
%ADD21O,0.850000X0.600000*%
%ADD22R,0.520000X1.000000*%
%ADD23R,0.270000X1.000000*%
%ADD24O,1.300000X2.600000*%
%ADD25O,1.300000X2.300000*%
%ADD26RoundRect,0.250000X0.475000X-0.250000X0.475000X0.250000X-0.475000X0.250000X-0.475000X-0.250000X0*%
%ADD27RoundRect,0.075000X0.075000X-0.662500X0.075000X0.662500X-0.075000X0.662500X-0.075000X-0.662500X0*%
%ADD28RoundRect,0.075000X0.662500X-0.075000X0.662500X0.075000X-0.662500X0.075000X-0.662500X-0.075000X0*%
%ADD29RoundRect,0.250000X-0.450000X0.262500X-0.450000X-0.262500X0.450000X-0.262500X0.450000X0.262500X0*%
%ADD30RoundRect,0.250000X0.262500X0.450000X-0.262500X0.450000X-0.262500X-0.450000X0.262500X-0.450000X0*%
%ADD31RoundRect,0.375000X-0.375000X0.625000X-0.375000X-0.625000X0.375000X-0.625000X0.375000X0.625000X0*%
%ADD32RoundRect,0.500000X-1.400000X0.500000X-1.400000X-0.500000X1.400000X-0.500000X1.400000X0.500000X0*%
%ADD33RoundRect,0.250000X-0.250000X-0.475000X0.250000X-0.475000X0.250000X0.475000X-0.250000X0.475000X0*%
%ADD34RoundRect,0.250000X-0.262500X-0.450000X0.262500X-0.450000X0.262500X0.450000X-0.262500X0.450000X0*%
G04 APERTURE END LIST*
D10*
X109500000Y-126415000D03*
D11*
X109500000Y-141625000D03*
D10*
X209500000Y-126415000D03*
D11*
X209500000Y-141625000D03*
D12*
X299720000Y-38100000D03*
D13*
X304800000Y-38100000D03*
D12*
X309880000Y-38100000D03*
D14*
X300990000Y-35560000D03*
X307340000Y-33020000D03*
D12*
X147320000Y-38100000D03*
D13*
X152400000Y-38100000D03*
D12*
X157480000Y-38100000D03*
D14*
X148590000Y-35560000D03*
X154940000Y-33020000D03*
D12*
X166370000Y-38100000D03*
D13*
X171450000Y-38100000D03*
D12*
X176530000Y-38100000D03*
D14*
X167640000Y-35560000D03*
X173990000Y-33020000D03*
D12*
X223520000Y-38100000D03*
D13*
X228600000Y-38100000D03*
D12*
X233680000Y-38100000D03*
D14*
X224790000Y-35560000D03*
X231140000Y-33020000D03*
D12*
X52070000Y-38100000D03*
D13*
X57150000Y-38100000D03*
D12*
X62230000Y-38100000D03*
D14*
X53340000Y-35560000D03*
X59690000Y-33020000D03*
D12*
X75882500Y-114300000D03*
D13*
X80962500Y-114300000D03*
D12*
X86042500Y-114300000D03*
D14*
X77152500Y-111760000D03*
X83502500Y-109220000D03*
D12*
X318770000Y-57150000D03*
D13*
X323850000Y-57150000D03*
D12*
X328930000Y-57150000D03*
D14*
X320040000Y-54610000D03*
X326390000Y-52070000D03*
D12*
X294957500Y-76200000D03*
D13*
X300037500Y-76200000D03*
D12*
X305117500Y-76200000D03*
D14*
X296227500Y-73660000D03*
X302577500Y-71120000D03*
D12*
X71120000Y-38100000D03*
D13*
X76200000Y-38100000D03*
D12*
X81280000Y-38100000D03*
D14*
X72390000Y-35560000D03*
X78740000Y-33020000D03*
D12*
X90170000Y-57150000D03*
D13*
X95250000Y-57150000D03*
D12*
X100330000Y-57150000D03*
D14*
X91440000Y-54610000D03*
X97790000Y-52070000D03*
D12*
X247332500Y-114300000D03*
D13*
X252412500Y-114300000D03*
D12*
X257492500Y-114300000D03*
D14*
X248602500Y-111760000D03*
X254952500Y-109220000D03*
D12*
X204470000Y-38100000D03*
D13*
X209550000Y-38100000D03*
D12*
X214630000Y-38100000D03*
D14*
X205740000Y-35560000D03*
X212090000Y-33020000D03*
D12*
X223520000Y-57150000D03*
D13*
X228600000Y-57150000D03*
D12*
X233680000Y-57150000D03*
D14*
X224790000Y-54610000D03*
X231140000Y-52070000D03*
D12*
X137795000Y-76200000D03*
D13*
X142875000Y-76200000D03*
D12*
X147955000Y-76200000D03*
D14*
X139065000Y-73660000D03*
X145415000Y-71120000D03*
D12*
X175895000Y-76200000D03*
D13*
X180975000Y-76200000D03*
D12*
X186055000Y-76200000D03*
D14*
X177165000Y-73660000D03*
X183515000Y-71120000D03*
D12*
X61595000Y-76200000D03*
D13*
X66675000Y-76200000D03*
D12*
X71755000Y-76200000D03*
D14*
X62865000Y-73660000D03*
X69215000Y-71120000D03*
D12*
X242570000Y-57150000D03*
D13*
X247650000Y-57150000D03*
D12*
X252730000Y-57150000D03*
D14*
X243840000Y-54610000D03*
X250190000Y-52070000D03*
D12*
X252095000Y-76200000D03*
D13*
X257175000Y-76200000D03*
D12*
X262255000Y-76200000D03*
D14*
X253365000Y-73660000D03*
X259715000Y-71120000D03*
D12*
X273526250Y-114300000D03*
D13*
X278606250Y-114300000D03*
D12*
X283686250Y-114300000D03*
D14*
X274796250Y-111760000D03*
X281146250Y-109220000D03*
D12*
X318770000Y-114300000D03*
D13*
X323850000Y-114300000D03*
D12*
X328930000Y-114300000D03*
D14*
X320040000Y-111760000D03*
X326390000Y-109220000D03*
D12*
X271145000Y-76200000D03*
D13*
X276225000Y-76200000D03*
D12*
X281305000Y-76200000D03*
D14*
X272415000Y-73660000D03*
X278765000Y-71120000D03*
D12*
X299720000Y-133350000D03*
D13*
X304800000Y-133350000D03*
D12*
X309880000Y-133350000D03*
D14*
X300990000Y-130810000D03*
X307340000Y-128270000D03*
D12*
X287813750Y-95250000D03*
D13*
X292893750Y-95250000D03*
D12*
X297973750Y-95250000D03*
D14*
X289083750Y-92710000D03*
X295433750Y-90170000D03*
D12*
X35401250Y-133350000D03*
D13*
X40481250Y-133350000D03*
D12*
X45561250Y-133350000D03*
D14*
X36671250Y-130810000D03*
X43021250Y-128270000D03*
D12*
X109220000Y-38100000D03*
D13*
X114300000Y-38100000D03*
D12*
X119380000Y-38100000D03*
D14*
X110490000Y-35560000D03*
X116840000Y-33020000D03*
D12*
X249713750Y-133350000D03*
D13*
X254793750Y-133350000D03*
D12*
X259873750Y-133350000D03*
D14*
X250983750Y-130810000D03*
X257333750Y-128270000D03*
D12*
X80645000Y-76200000D03*
D13*
X85725000Y-76200000D03*
D12*
X90805000Y-76200000D03*
D14*
X81915000Y-73660000D03*
X88265000Y-71120000D03*
D12*
X33020000Y-38100000D03*
D13*
X38100000Y-38100000D03*
D12*
X43180000Y-38100000D03*
D14*
X34290000Y-35560000D03*
X40640000Y-33020000D03*
D12*
X213995000Y-76200000D03*
D13*
X219075000Y-76200000D03*
D12*
X224155000Y-76200000D03*
D14*
X215265000Y-73660000D03*
X221615000Y-71120000D03*
D12*
X142557500Y-95250000D03*
D13*
X147637500Y-95250000D03*
D12*
X152717500Y-95250000D03*
D14*
X143827500Y-92710000D03*
X150177500Y-90170000D03*
D12*
X147320000Y-57150000D03*
D13*
X152400000Y-57150000D03*
D12*
X157480000Y-57150000D03*
D14*
X148590000Y-54610000D03*
X154940000Y-52070000D03*
D12*
X261620000Y-38100000D03*
D13*
X266700000Y-38100000D03*
D12*
X271780000Y-38100000D03*
D14*
X262890000Y-35560000D03*
X269240000Y-33020000D03*
D12*
X33020000Y-57150000D03*
D13*
X38100000Y-57150000D03*
D12*
X43180000Y-57150000D03*
D14*
X34290000Y-54610000D03*
X40640000Y-52070000D03*
D12*
X318770000Y-76200000D03*
D13*
X323850000Y-76200000D03*
D12*
X328930000Y-76200000D03*
D14*
X320040000Y-73660000D03*
X326390000Y-71120000D03*
D12*
X318770000Y-38100000D03*
D13*
X323850000Y-38100000D03*
D12*
X328930000Y-38100000D03*
D14*
X320040000Y-35560000D03*
X326390000Y-33020000D03*
D12*
X194945000Y-76200000D03*
D13*
X200025000Y-76200000D03*
D12*
X205105000Y-76200000D03*
D14*
X196215000Y-73660000D03*
X202565000Y-71120000D03*
D12*
X52070000Y-57150000D03*
D13*
X57150000Y-57150000D03*
D12*
X62230000Y-57150000D03*
D14*
X53340000Y-54610000D03*
X59690000Y-52070000D03*
D12*
X90170000Y-38100000D03*
D13*
X95250000Y-38100000D03*
D12*
X100330000Y-38100000D03*
D14*
X91440000Y-35560000D03*
X97790000Y-33020000D03*
D12*
X85407500Y-95250000D03*
D13*
X90487500Y-95250000D03*
D12*
X95567500Y-95250000D03*
D14*
X86677500Y-92710000D03*
X93027500Y-90170000D03*
D15*
X219300000Y-60514315D03*
D16*
X219300000Y-56704315D03*
D12*
X225901250Y-133350000D03*
D13*
X230981250Y-133350000D03*
D12*
X236061250Y-133350000D03*
D14*
X227171250Y-130810000D03*
X233521250Y-128270000D03*
D12*
X37782500Y-76200000D03*
D13*
X42862500Y-76200000D03*
D12*
X47942500Y-76200000D03*
D14*
X39052500Y-73660000D03*
X45402500Y-71120000D03*
D12*
X318770000Y-133350000D03*
D13*
X323850000Y-133350000D03*
D12*
X328930000Y-133350000D03*
D14*
X320040000Y-130810000D03*
X326390000Y-128270000D03*
D12*
X99695000Y-76200000D03*
D13*
X104775000Y-76200000D03*
D12*
X109855000Y-76200000D03*
D14*
X100965000Y-73660000D03*
X107315000Y-71120000D03*
D12*
X171132500Y-114300000D03*
D13*
X176212500Y-114300000D03*
D12*
X181292500Y-114300000D03*
D14*
X172402500Y-111760000D03*
X178752500Y-109220000D03*
D12*
X280670000Y-133350000D03*
D13*
X285750000Y-133350000D03*
D12*
X290830000Y-133350000D03*
D14*
X281940000Y-130810000D03*
X288290000Y-128270000D03*
D12*
X290195000Y-57150000D03*
D13*
X295275000Y-57150000D03*
D12*
X300355000Y-57150000D03*
D14*
X291465000Y-54610000D03*
X297815000Y-52070000D03*
D12*
X133032500Y-114300000D03*
D13*
X138112500Y-114300000D03*
D12*
X143192500Y-114300000D03*
D14*
X134302500Y-111760000D03*
X140652500Y-109220000D03*
D12*
X40163750Y-95250000D03*
D13*
X45243750Y-95250000D03*
D12*
X50323750Y-95250000D03*
D14*
X41433750Y-92710000D03*
X47783750Y-90170000D03*
D12*
X237807500Y-95250000D03*
D13*
X242887500Y-95250000D03*
D12*
X247967500Y-95250000D03*
D14*
X239077500Y-92710000D03*
X245427500Y-90170000D03*
D12*
X199707500Y-95250000D03*
D13*
X204787500Y-95250000D03*
D12*
X209867500Y-95250000D03*
D14*
X200977500Y-92710000D03*
X207327500Y-90170000D03*
D12*
X204470000Y-57150000D03*
D13*
X209550000Y-57150000D03*
D12*
X214630000Y-57150000D03*
D14*
X205740000Y-54610000D03*
X212090000Y-52070000D03*
D12*
X166370000Y-57150000D03*
D13*
X171450000Y-57150000D03*
D12*
X176530000Y-57150000D03*
D14*
X167640000Y-54610000D03*
X173990000Y-52070000D03*
D12*
X242570000Y-38100000D03*
D13*
X247650000Y-38100000D03*
D12*
X252730000Y-38100000D03*
D14*
X243840000Y-35560000D03*
X250190000Y-33020000D03*
D10*
X38062000Y-107215000D03*
D11*
X38062000Y-122425000D03*
D10*
X61938000Y-107215000D03*
D11*
X61938000Y-122425000D03*
D12*
X299720000Y-114300000D03*
D13*
X304800000Y-114300000D03*
D12*
X309880000Y-114300000D03*
D14*
X300990000Y-111760000D03*
X307340000Y-109220000D03*
D12*
X218757500Y-95250000D03*
D13*
X223837500Y-95250000D03*
D12*
X228917500Y-95250000D03*
D14*
X220027500Y-92710000D03*
X226377500Y-90170000D03*
D12*
X318770000Y-95250000D03*
D13*
X323850000Y-95250000D03*
D12*
X328930000Y-95250000D03*
D14*
X320040000Y-92710000D03*
X326390000Y-90170000D03*
D10*
X283362000Y-50215000D03*
D11*
X283362000Y-65425000D03*
D10*
X307238000Y-50215000D03*
D11*
X307238000Y-65425000D03*
D12*
X180657500Y-95250000D03*
D13*
X185737500Y-95250000D03*
D12*
X190817500Y-95250000D03*
D14*
X181927500Y-92710000D03*
X188277500Y-90170000D03*
D12*
X44926250Y-114300000D03*
D13*
X50006250Y-114300000D03*
D12*
X55086250Y-114300000D03*
D14*
X46196250Y-111760000D03*
X52546250Y-109220000D03*
D12*
X128270000Y-38100000D03*
D13*
X133350000Y-38100000D03*
D12*
X138430000Y-38100000D03*
D14*
X129540000Y-35560000D03*
X135890000Y-33020000D03*
D12*
X104457500Y-95250000D03*
D13*
X109537500Y-95250000D03*
D12*
X114617500Y-95250000D03*
D14*
X105727500Y-92710000D03*
X112077500Y-90170000D03*
D12*
X256857500Y-95250000D03*
D13*
X261937500Y-95250000D03*
D12*
X267017500Y-95250000D03*
D14*
X258127500Y-92710000D03*
X264477500Y-90170000D03*
D12*
X190182500Y-114300000D03*
D13*
X195262500Y-114300000D03*
D12*
X200342500Y-114300000D03*
D14*
X191452500Y-111760000D03*
X197802500Y-109220000D03*
D12*
X228282500Y-114300000D03*
D13*
X233362500Y-114300000D03*
D12*
X238442500Y-114300000D03*
D14*
X229552500Y-111760000D03*
X235902500Y-109220000D03*
D12*
X118745000Y-76200000D03*
D13*
X123825000Y-76200000D03*
D12*
X128905000Y-76200000D03*
D14*
X120015000Y-73660000D03*
X126365000Y-71120000D03*
D12*
X123507500Y-95250000D03*
D13*
X128587500Y-95250000D03*
D12*
X133667500Y-95250000D03*
D14*
X124777500Y-92710000D03*
X131127500Y-90170000D03*
D12*
X185420000Y-57150000D03*
D13*
X190500000Y-57150000D03*
D12*
X195580000Y-57150000D03*
D14*
X186690000Y-54610000D03*
X193040000Y-52070000D03*
D12*
X280670000Y-38100000D03*
D13*
X285750000Y-38100000D03*
D12*
X290830000Y-38100000D03*
D14*
X281940000Y-35560000D03*
X288290000Y-33020000D03*
D12*
X83026250Y-133350000D03*
D13*
X88106250Y-133350000D03*
D12*
X93186250Y-133350000D03*
D14*
X84296250Y-130810000D03*
X90646250Y-128270000D03*
D12*
X59213750Y-133350000D03*
D13*
X64293750Y-133350000D03*
D12*
X69373750Y-133350000D03*
D14*
X60483750Y-130810000D03*
X66833750Y-128270000D03*
D12*
X152082500Y-114300000D03*
D13*
X157162500Y-114300000D03*
D12*
X162242500Y-114300000D03*
D14*
X153352500Y-111760000D03*
X159702500Y-109220000D03*
D12*
X128270000Y-57150000D03*
D13*
X133350000Y-57150000D03*
D12*
X138430000Y-57150000D03*
D14*
X129540000Y-54610000D03*
X135890000Y-52070000D03*
D12*
X233045000Y-76200000D03*
D13*
X238125000Y-76200000D03*
D12*
X243205000Y-76200000D03*
D14*
X234315000Y-73660000D03*
X240665000Y-71120000D03*
D12*
X66357500Y-95250000D03*
D13*
X71437500Y-95250000D03*
D12*
X76517500Y-95250000D03*
D14*
X67627500Y-92710000D03*
X73977500Y-90170000D03*
D12*
X71120000Y-57150000D03*
D13*
X76200000Y-57150000D03*
D12*
X81280000Y-57150000D03*
D14*
X72390000Y-54610000D03*
X78740000Y-52070000D03*
D12*
X209232500Y-114300000D03*
D13*
X214312500Y-114300000D03*
D12*
X219392500Y-114300000D03*
D14*
X210502500Y-111760000D03*
X216852500Y-109220000D03*
D12*
X185420000Y-38100000D03*
D13*
X190500000Y-38100000D03*
D12*
X195580000Y-38100000D03*
D14*
X186690000Y-35560000D03*
X193040000Y-33020000D03*
D12*
X109220000Y-57150000D03*
D13*
X114300000Y-57150000D03*
D12*
X119380000Y-57150000D03*
D14*
X110490000Y-54610000D03*
X116840000Y-52070000D03*
D12*
X94932500Y-114300000D03*
D13*
X100012500Y-114300000D03*
D12*
X105092500Y-114300000D03*
D14*
X96202500Y-111760000D03*
X102552500Y-109220000D03*
D12*
X261620000Y-57150000D03*
D13*
X266700000Y-57150000D03*
D12*
X271780000Y-57150000D03*
D14*
X262890000Y-54610000D03*
X269240000Y-52070000D03*
D12*
X113982500Y-114300000D03*
D13*
X119062500Y-114300000D03*
D12*
X124142500Y-114300000D03*
D14*
X115252500Y-111760000D03*
X121602500Y-109220000D03*
D12*
X154463750Y-133350000D03*
D13*
X159543750Y-133350000D03*
D12*
X164623750Y-133350000D03*
D14*
X155733750Y-130810000D03*
X162083750Y-128270000D03*
D12*
X156845000Y-76200000D03*
D13*
X161925000Y-76200000D03*
D12*
X167005000Y-76200000D03*
D14*
X158115000Y-73660000D03*
X164465000Y-71120000D03*
D12*
X161607500Y-95250000D03*
D13*
X166687500Y-95250000D03*
D12*
X171767500Y-95250000D03*
D14*
X162877500Y-92710000D03*
X169227500Y-90170000D03*
D15*
X248000000Y-79049315D03*
D16*
X248000000Y-75239315D03*
D15*
X81000000Y-98949315D03*
D16*
X81000000Y-95139315D03*
D15*
X314300000Y-117849315D03*
D16*
X314300000Y-114039315D03*
D15*
X171400000Y-79449315D03*
D16*
X171400000Y-75639315D03*
D15*
X95400000Y-79649315D03*
D16*
X95400000Y-75839315D03*
D15*
X49800000Y-136649315D03*
D16*
X49800000Y-132839315D03*
D17*
X259375000Y-65575000D03*
X257475000Y-65575000D03*
D18*
X293100000Y-114125000D03*
X293100000Y-108325000D03*
X289100000Y-114125000D03*
X289100000Y-108325000D03*
D17*
X267300000Y-104675000D03*
X265400000Y-104675000D03*
D19*
X256850000Y-27250000D03*
D20*
X258450000Y-24150000D03*
X261250000Y-24150000D03*
D21*
X262850000Y-27250000D03*
D22*
X256750000Y-28350000D03*
X257500000Y-28350000D03*
D23*
X258100000Y-28350000D03*
X259600000Y-28350000D03*
X260600000Y-28350000D03*
X261600000Y-28350000D03*
D22*
X262200000Y-28350000D03*
X262950000Y-28350000D03*
X262950000Y-28350000D03*
X262200000Y-28350000D03*
D23*
X261100000Y-28350000D03*
X260100000Y-28350000D03*
X259100000Y-28350000D03*
X258600000Y-28350000D03*
D22*
X257500000Y-28350000D03*
X256750000Y-28350000D03*
D24*
X255530000Y-24150000D03*
D25*
X255530000Y-27975000D03*
D24*
X264170000Y-24150000D03*
D25*
X264170000Y-27975000D03*
D15*
X67000000Y-60549315D03*
D16*
X67000000Y-56739315D03*
D15*
X185800000Y-117649315D03*
D16*
X185800000Y-113839315D03*
D15*
X85900000Y-41349315D03*
D16*
X85900000Y-37539315D03*
D15*
X71600000Y-117549315D03*
D16*
X71600000Y-113739315D03*
D15*
X314400000Y-79249315D03*
D16*
X314400000Y-75439315D03*
D15*
X162000000Y-41349315D03*
D16*
X162000000Y-37539315D03*
D15*
X314100000Y-98749315D03*
D16*
X314100000Y-94939315D03*
D15*
X314400000Y-42449315D03*
D16*
X314400000Y-38639315D03*
D15*
X296000000Y-117449315D03*
D16*
X296000000Y-113639315D03*
D26*
X280275000Y-84525000D03*
X280275000Y-82625000D03*
D15*
X36000000Y-98949315D03*
D16*
X36000000Y-95139315D03*
D15*
X123800000Y-41449315D03*
D16*
X123800000Y-37639315D03*
D27*
X275687500Y-93312500D03*
X275187500Y-93312500D03*
X274687500Y-93312500D03*
X274187500Y-93312500D03*
X273687500Y-93312500D03*
X273187500Y-93312500D03*
X272687500Y-93312500D03*
X272187500Y-93312500D03*
X271687500Y-93312500D03*
X271187500Y-93312500D03*
X270687500Y-93312500D03*
X270187500Y-93312500D03*
D28*
X268775000Y-91900000D03*
X268775000Y-91400000D03*
X268775000Y-90900000D03*
X268775000Y-90400000D03*
X268775000Y-89900000D03*
X268775000Y-89400000D03*
X268775000Y-88900000D03*
X268775000Y-88400000D03*
X268775000Y-87900000D03*
X268775000Y-87400000D03*
X268775000Y-86900000D03*
X268775000Y-86400000D03*
D27*
X270187500Y-84987500D03*
X270687500Y-84987500D03*
X271187500Y-84987500D03*
X271687500Y-84987500D03*
X272187500Y-84987500D03*
X272687500Y-84987500D03*
X273187500Y-84987500D03*
X273687500Y-84987500D03*
X274187500Y-84987500D03*
X274687500Y-84987500D03*
X275187500Y-84987500D03*
X275687500Y-84987500D03*
D28*
X277100000Y-86400000D03*
X277100000Y-86900000D03*
X277100000Y-87400000D03*
X277100000Y-87900000D03*
X277100000Y-88400000D03*
X277100000Y-88900000D03*
X277100000Y-89400000D03*
X277100000Y-89900000D03*
X277100000Y-90400000D03*
X277100000Y-90900000D03*
X277100000Y-91400000D03*
X277100000Y-91900000D03*
D15*
X214500000Y-95649315D03*
D16*
X214500000Y-91839315D03*
D15*
X47700000Y-41449315D03*
D16*
X47700000Y-37639315D03*
D15*
X66700000Y-41549315D03*
D16*
X66700000Y-37739315D03*
D29*
X257850000Y-32600000D03*
X257850000Y-34425000D03*
D15*
X233500000Y-94749315D03*
D16*
X233500000Y-90939315D03*
D15*
X256700000Y-60049315D03*
D16*
X256700000Y-56239315D03*
D15*
X128600000Y-117749315D03*
D16*
X128600000Y-113939315D03*
D15*
X295500000Y-42349315D03*
D16*
X295500000Y-38539315D03*
D18*
X263575000Y-107575000D03*
X263575000Y-113375000D03*
X267575000Y-107575000D03*
X267575000Y-113375000D03*
D15*
X76200000Y-79849315D03*
D16*
X76200000Y-76039315D03*
D30*
X290162500Y-105250000D03*
X288337500Y-105250000D03*
D15*
X55200000Y-136649315D03*
D16*
X55200000Y-132839315D03*
D15*
X55300000Y-79549315D03*
D16*
X55300000Y-75739315D03*
D15*
X35649315Y-66500000D03*
D16*
X31839315Y-66500000D03*
D15*
X219800000Y-40849315D03*
D16*
X219800000Y-37039315D03*
D15*
X314800000Y-60149315D03*
D16*
X314800000Y-56339315D03*
D15*
X123900000Y-60349315D03*
D16*
X123900000Y-56539315D03*
D15*
X138200000Y-98749315D03*
D16*
X138200000Y-94939315D03*
D15*
X157200000Y-98949315D03*
D16*
X157200000Y-95139315D03*
D31*
X263700000Y-64750000D03*
X266000000Y-64750000D03*
D32*
X266000000Y-71050000D03*
D31*
X268300000Y-64750000D03*
D15*
X105000000Y-60549315D03*
D16*
X105000000Y-56739315D03*
D15*
X221600000Y-136749315D03*
D16*
X221600000Y-132939315D03*
D15*
X291400000Y-79249315D03*
D16*
X291400000Y-75439315D03*
D15*
X274849315Y-66400000D03*
D16*
X271039315Y-66400000D03*
D15*
X147800000Y-117649315D03*
D16*
X147800000Y-113839315D03*
D15*
X195400000Y-98349315D03*
D16*
X195400000Y-94539315D03*
D15*
X176200000Y-98849315D03*
D16*
X176200000Y-95039315D03*
D15*
X47800000Y-60049315D03*
D16*
X47800000Y-56239315D03*
D15*
X181100000Y-60149315D03*
D16*
X181100000Y-56339315D03*
D15*
X276600000Y-136749315D03*
D16*
X276600000Y-132939315D03*
D15*
X252500000Y-95749315D03*
D16*
X252500000Y-91939315D03*
D15*
X190600000Y-79349315D03*
D16*
X190600000Y-75539315D03*
D15*
X104800000Y-41449315D03*
D16*
X104800000Y-37639315D03*
D15*
X284100000Y-98149315D03*
D16*
X284100000Y-94339315D03*
D15*
X114300000Y-79549315D03*
D16*
X114300000Y-75739315D03*
D15*
X142800000Y-41249315D03*
D16*
X142800000Y-37439315D03*
D15*
X238300000Y-59949315D03*
D16*
X238300000Y-56139315D03*
D15*
X152500000Y-79549315D03*
D16*
X152500000Y-75739315D03*
D33*
X266000000Y-77250000D03*
X267900000Y-77250000D03*
D15*
X181200000Y-41349315D03*
D16*
X181200000Y-37539315D03*
D15*
X223900000Y-117749315D03*
D16*
X223900000Y-113939315D03*
D15*
X85900000Y-60349315D03*
D16*
X85900000Y-56539315D03*
D15*
X79200000Y-136649315D03*
D16*
X79200000Y-132839315D03*
D15*
X31700000Y-116949315D03*
D16*
X31700000Y-113139315D03*
D15*
X276200000Y-42949315D03*
D16*
X276200000Y-39139315D03*
D15*
X162200000Y-60249315D03*
D16*
X162200000Y-56439315D03*
D33*
X277800000Y-93800000D03*
X279700000Y-93800000D03*
D15*
X90600000Y-117549315D03*
D16*
X90600000Y-113739315D03*
D29*
X261150000Y-30800000D03*
X261150000Y-32625000D03*
D17*
X268200000Y-84700000D03*
X266300000Y-84700000D03*
D15*
X209500000Y-79249315D03*
D16*
X209500000Y-75439315D03*
D15*
X304300000Y-60349315D03*
D16*
X304300000Y-56539315D03*
D15*
X314400000Y-136749315D03*
D16*
X314400000Y-132939315D03*
D15*
X269200000Y-120749315D03*
D16*
X269200000Y-116939315D03*
D15*
X37549315Y-47100000D03*
D16*
X33739315Y-47100000D03*
D34*
X266025000Y-75150000D03*
X267850000Y-75150000D03*
D15*
X295300000Y-136749315D03*
D16*
X295300000Y-132939315D03*
D15*
X119200000Y-98849315D03*
D16*
X119200000Y-95039315D03*
D15*
X133300000Y-79449315D03*
D16*
X133300000Y-75639315D03*
D15*
X279850686Y-46900000D03*
D16*
X283660686Y-46900000D03*
D15*
X109700000Y-117749315D03*
D16*
X109700000Y-113939315D03*
D15*
X238700000Y-41249315D03*
D16*
X238700000Y-37439315D03*
D15*
X166800000Y-117749315D03*
D16*
X166800000Y-113939315D03*
D15*
X200300000Y-41249315D03*
D16*
X200300000Y-37439315D03*
D15*
X204800000Y-117749315D03*
D16*
X204800000Y-113939315D03*
D33*
X270950000Y-98250000D03*
X272850000Y-98250000D03*
D15*
X61700000Y-98849315D03*
D16*
X61700000Y-95039315D03*
D15*
X149900000Y-136649315D03*
D16*
X149900000Y-132839315D03*
D15*
X100200000Y-98849315D03*
D16*
X100200000Y-95039315D03*
D15*
X242800000Y-117449315D03*
D16*
X242800000Y-113639315D03*
D33*
X277800000Y-95900000D03*
X279700000Y-95900000D03*
D26*
X278225000Y-84525000D03*
X278225000Y-82625000D03*
D15*
X33400000Y-79649315D03*
D16*
X33400000Y-75839315D03*
D15*
X200200000Y-60349315D03*
D16*
X200200000Y-56539315D03*
D15*
X143000000Y-60449315D03*
D16*
X143000000Y-56639315D03*
D15*
X228900000Y-78949315D03*
D16*
X228900000Y-75139315D03*
D15*
X245300000Y-136749315D03*
D16*
X245300000Y-132939315D03*
D33*
X270950000Y-96125000D03*
X272850000Y-96125000D03*
M02*
