M48
; DRILL file {KiCad 8.0.8} date 2025-03-04T19:25:50+1100
; FORMAT={-:-/ absolute / metric / decimal}
; #@! TF.CreationDate,2025-03-04T19:25:50+11:00
; #@! TF.GenerationSoftware,Kicad,Pcbnew,8.0.8
; #@! TF.FileFunction,NonPlated,1,2,NPTH
FMAT,2
METRIC
; #@! TA.AperFunction,NonPlated,NPTH,ComponentDrill
T1C0.600
; #@! TA.AperFunction,NonPlated,NPTH,ComponentDrill
T2C1.750
; #@! TA.AperFunction,NonPlated,NPTH,ComponentDrill
T3C3.048
; #@! TA.AperFunction,NonPlated,NPTH,ComponentDrill
T4C3.988
; #@! TA.AperFunction,NonPlated,NPTH,ComponentDrill
T5C4.000
%
G90
G05
T1
X256.85Y-27.25
T2
X33.02Y-38.1
X33.02Y-57.15
X35.401Y-133.35
X37.782Y-76.2
X40.164Y-95.25
X43.18Y-38.1
X43.18Y-57.15
X44.926Y-114.3
X45.561Y-133.35
X47.942Y-76.2
X50.324Y-95.25
X52.07Y-38.1
X52.07Y-57.15
X55.086Y-114.3
X59.214Y-133.35
X61.595Y-76.2
X62.23Y-38.1
X62.23Y-57.15
X66.358Y-95.25
X69.374Y-133.35
X71.12Y-38.1
X71.12Y-57.15
X71.755Y-76.2
X75.882Y-114.3
X76.517Y-95.25
X80.645Y-76.2
X81.28Y-38.1
X81.28Y-57.15
X83.026Y-133.35
X85.407Y-95.25
X86.042Y-114.3
X90.17Y-38.1
X90.17Y-57.15
X90.805Y-76.2
X93.186Y-133.35
X94.932Y-114.3
X95.567Y-95.25
X99.695Y-76.2
X100.33Y-38.1
X100.33Y-57.15
X104.457Y-95.25
X105.093Y-114.3
X109.22Y-38.1
X109.22Y-57.15
X109.855Y-76.2
X113.983Y-114.3
X114.617Y-95.25
X118.745Y-76.2
X119.38Y-38.1
X119.38Y-57.15
X123.507Y-95.25
X124.142Y-114.3
X128.27Y-38.1
X128.27Y-57.15
X128.905Y-76.2
X133.032Y-114.3
X133.667Y-95.25
X137.795Y-76.2
X138.43Y-38.1
X138.43Y-57.15
X142.558Y-95.25
X143.192Y-114.3
X147.32Y-38.1
X147.32Y-57.15
X147.955Y-76.2
X152.082Y-114.3
X152.718Y-95.25
X154.464Y-133.35
X156.845Y-76.2
X157.48Y-38.1
X157.48Y-57.15
X161.607Y-95.25
X162.243Y-114.3
X164.624Y-133.35
X166.37Y-38.1
X166.37Y-57.15
X167.005Y-76.2
X171.132Y-114.3
X171.767Y-95.25
X175.895Y-76.2
X176.53Y-38.1
X176.53Y-57.15
X180.657Y-95.25
X181.292Y-114.3
X185.42Y-38.1
X185.42Y-57.15
X186.055Y-76.2
X190.183Y-114.3
X190.817Y-95.25
X194.945Y-76.2
X195.58Y-38.1
X195.58Y-57.15
X199.707Y-95.25
X200.343Y-114.3
X204.47Y-38.1
X204.47Y-57.15
X205.105Y-76.2
X209.232Y-114.3
X209.867Y-95.25
X213.995Y-76.2
X214.63Y-38.1
X214.63Y-57.15
X218.757Y-95.25
X219.392Y-114.3
X223.52Y-38.1
X223.52Y-57.15
X224.155Y-76.2
X225.901Y-133.35
X228.282Y-114.3
X228.917Y-95.25
X233.045Y-76.2
X233.68Y-38.1
X233.68Y-57.15
X236.061Y-133.35
X237.807Y-95.25
X238.442Y-114.3
X242.57Y-38.1
X242.57Y-57.15
X243.205Y-76.2
X247.332Y-114.3
X247.968Y-95.25
X249.714Y-133.35
X252.095Y-76.2
X252.73Y-38.1
X252.73Y-57.15
X256.858Y-95.25
X257.493Y-114.3
X259.874Y-133.35
X261.62Y-38.1
X261.62Y-57.15
X262.255Y-76.2
X267.017Y-95.25
X271.145Y-76.2
X271.78Y-38.1
X271.78Y-57.15
X273.526Y-114.3
X280.67Y-38.1
X280.67Y-133.35
X281.305Y-76.2
X283.686Y-114.3
X287.814Y-95.25
X290.195Y-57.15
X290.83Y-38.1
X290.83Y-133.35
X294.957Y-76.2
X297.974Y-95.25
X299.72Y-38.1
X299.72Y-114.3
X299.72Y-133.35
X300.355Y-57.15
X305.118Y-76.2
X309.88Y-38.1
X309.88Y-114.3
X309.88Y-133.35
X318.77Y-38.1
X318.77Y-57.15
X318.77Y-76.2
X318.77Y-95.25
X318.77Y-114.3
X318.77Y-133.35
X328.93Y-38.1
X328.93Y-57.15
X328.93Y-76.2
X328.93Y-95.25
X328.93Y-114.3
X328.93Y-133.35
T3
X38.062Y-107.215
X61.938Y-107.215
X109.5Y-126.415
X209.5Y-126.415
X283.362Y-50.215
X307.238Y-50.215
T4
X38.062Y-122.425
X61.938Y-122.425
X109.5Y-141.625
X209.5Y-141.625
X283.362Y-65.425
X307.238Y-65.425
T5
X38.1Y-38.1
X38.1Y-57.15
X40.481Y-133.35
X42.862Y-76.2
X45.244Y-95.25
X50.006Y-114.3
X57.15Y-38.1
X57.15Y-57.15
X64.294Y-133.35
X66.675Y-76.2
X71.438Y-95.25
X76.2Y-38.1
X76.2Y-57.15
X80.962Y-114.3
X85.725Y-76.2
X88.106Y-133.35
X90.487Y-95.25
X95.25Y-38.1
X95.25Y-57.15
X100.012Y-114.3
X104.775Y-76.2
X109.537Y-95.25
X114.3Y-38.1
X114.3Y-57.15
X119.062Y-114.3
X123.825Y-76.2
X128.588Y-95.25
X133.35Y-38.1
X133.35Y-57.15
X138.112Y-114.3
X142.875Y-76.2
X147.637Y-95.25
X152.4Y-38.1
X152.4Y-57.15
X157.162Y-114.3
X159.544Y-133.35
X161.925Y-76.2
X166.688Y-95.25
X171.45Y-38.1
X171.45Y-57.15
X176.213Y-114.3
X180.975Y-76.2
X185.737Y-95.25
X190.5Y-38.1
X190.5Y-57.15
X195.262Y-114.3
X200.025Y-76.2
X204.787Y-95.25
X209.55Y-38.1
X209.55Y-57.15
X214.312Y-114.3
X219.075Y-76.2
X223.837Y-95.25
X228.6Y-38.1
X228.6Y-57.15
X230.981Y-133.35
X233.362Y-114.3
X238.125Y-76.2
X242.887Y-95.25
X247.65Y-38.1
X247.65Y-57.15
X252.412Y-114.3
X254.794Y-133.35
X257.175Y-76.2
X261.938Y-95.25
X266.7Y-38.1
X266.7Y-57.15
X276.225Y-76.2
X278.606Y-114.3
X285.75Y-38.1
X285.75Y-133.35
X292.894Y-95.25
X295.275Y-57.15
X300.037Y-76.2
X304.8Y-38.1
X304.8Y-114.3
X304.8Y-133.35
X323.85Y-38.1
X323.85Y-57.15
X323.85Y-76.2
X323.85Y-95.25
X323.85Y-114.3
X323.85Y-133.35
T1
G00X262.725Y-27.25
M15
G01X262.975Y-27.25
M16
G05
M30
