G04 #@! TF.GenerationSoftware,KiCad,Pcbnew,8.0.8*
G04 #@! TF.CreationDate,2025-03-04T19:25:46+11:00*
G04 #@! TF.ProjectId,jethro_mk2,6a657468-726f-45f6-9d6b-322e6b696361,rev?*
G04 #@! TF.SameCoordinates,Original*
G04 #@! TF.FileFunction,Paste,Bot*
G04 #@! TF.FilePolarity,Positive*
%FSLAX46Y46*%
G04 Gerber Fmt 4.6, Leading zero omitted, Abs format (unit mm)*
G04 Created by KiCad (PCBNEW 8.0.8) date 2025-03-04 19:25:46*
%MOMM*%
%LPD*%
G01*
G04 APERTURE LIST*
G04 Aperture macros list*
%AMRoundRect*
0 Rectangle with rounded corners*
0 $1 Rounding radius*
0 $2 $3 $4 $5 $6 $7 $8 $9 X,Y pos of 4 corners*
0 Add a 4 corners polygon primitive as box body*
4,1,4,$2,$3,$4,$5,$6,$7,$8,$9,$2,$3,0*
0 Add four circle primitives for the rounded corners*
1,1,$1+$1,$2,$3*
1,1,$1+$1,$4,$5*
1,1,$1+$1,$6,$7*
1,1,$1+$1,$8,$9*
0 Add four rect primitives between the rounded corners*
20,1,$1+$1,$2,$3,$4,$5,0*
20,1,$1+$1,$4,$5,$6,$7,0*
20,1,$1+$1,$6,$7,$8,$9,0*
20,1,$1+$1,$8,$9,$2,$3,0*%
G04 Aperture macros list end*
%ADD10RoundRect,0.250000X0.250000X0.475000X-0.250000X0.475000X-0.250000X-0.475000X0.250000X-0.475000X0*%
%ADD11R,1.000000X2.800000*%
%ADD12R,1.000000X2.000000*%
%ADD13R,0.520000X1.000000*%
%ADD14R,0.270000X1.000000*%
%ADD15RoundRect,0.250000X0.475000X-0.250000X0.475000X0.250000X-0.475000X0.250000X-0.475000X-0.250000X0*%
%ADD16RoundRect,0.075000X0.075000X-0.662500X0.075000X0.662500X-0.075000X0.662500X-0.075000X-0.662500X0*%
%ADD17RoundRect,0.075000X0.662500X-0.075000X0.662500X0.075000X-0.662500X0.075000X-0.662500X-0.075000X0*%
%ADD18RoundRect,0.250000X-0.450000X0.262500X-0.450000X-0.262500X0.450000X-0.262500X0.450000X0.262500X0*%
%ADD19RoundRect,0.250000X0.262500X0.450000X-0.262500X0.450000X-0.262500X-0.450000X0.262500X-0.450000X0*%
%ADD20RoundRect,0.375000X-0.375000X0.625000X-0.375000X-0.625000X0.375000X-0.625000X0.375000X0.625000X0*%
%ADD21RoundRect,0.500000X-1.400000X0.500000X-1.400000X-0.500000X1.400000X-0.500000X1.400000X0.500000X0*%
%ADD22RoundRect,0.250000X-0.250000X-0.475000X0.250000X-0.475000X0.250000X0.475000X-0.250000X0.475000X0*%
%ADD23RoundRect,0.250000X-0.262500X-0.450000X0.262500X-0.450000X0.262500X0.450000X-0.262500X0.450000X0*%
G04 APERTURE END LIST*
D10*
X259375000Y-65575000D03*
X257475000Y-65575000D03*
D11*
X293100000Y-114125000D03*
X293100000Y-108325000D03*
X289100000Y-114125000D03*
X289100000Y-108325000D03*
D10*
X267300000Y-104675000D03*
X265400000Y-104675000D03*
D12*
X258450000Y-24150000D03*
X261250000Y-24150000D03*
D13*
X256750000Y-28350000D03*
X257500000Y-28350000D03*
D14*
X258100000Y-28350000D03*
X259600000Y-28350000D03*
X260600000Y-28350000D03*
X261600000Y-28350000D03*
D13*
X262200000Y-28350000D03*
X262950000Y-28350000D03*
X262950000Y-28350000D03*
X262200000Y-28350000D03*
D14*
X261100000Y-28350000D03*
X260100000Y-28350000D03*
X259100000Y-28350000D03*
X258600000Y-28350000D03*
D13*
X257500000Y-28350000D03*
X256750000Y-28350000D03*
D15*
X280275000Y-84525000D03*
X280275000Y-82625000D03*
D16*
X275687500Y-93312500D03*
X275187500Y-93312500D03*
X274687500Y-93312500D03*
X274187500Y-93312500D03*
X273687500Y-93312500D03*
X273187500Y-93312500D03*
X272687500Y-93312500D03*
X272187500Y-93312500D03*
X271687500Y-93312500D03*
X271187500Y-93312500D03*
X270687500Y-93312500D03*
X270187500Y-93312500D03*
D17*
X268775000Y-91900000D03*
X268775000Y-91400000D03*
X268775000Y-90900000D03*
X268775000Y-90400000D03*
X268775000Y-89900000D03*
X268775000Y-89400000D03*
X268775000Y-88900000D03*
X268775000Y-88400000D03*
X268775000Y-87900000D03*
X268775000Y-87400000D03*
X268775000Y-86900000D03*
X268775000Y-86400000D03*
D16*
X270187500Y-84987500D03*
X270687500Y-84987500D03*
X271187500Y-84987500D03*
X271687500Y-84987500D03*
X272187500Y-84987500D03*
X272687500Y-84987500D03*
X273187500Y-84987500D03*
X273687500Y-84987500D03*
X274187500Y-84987500D03*
X274687500Y-84987500D03*
X275187500Y-84987500D03*
X275687500Y-84987500D03*
D17*
X277100000Y-86400000D03*
X277100000Y-86900000D03*
X277100000Y-87400000D03*
X277100000Y-87900000D03*
X277100000Y-88400000D03*
X277100000Y-88900000D03*
X277100000Y-89400000D03*
X277100000Y-89900000D03*
X277100000Y-90400000D03*
X277100000Y-90900000D03*
X277100000Y-91400000D03*
X277100000Y-91900000D03*
D18*
X257850000Y-32600000D03*
X257850000Y-34425000D03*
D11*
X263575000Y-107575000D03*
X263575000Y-113375000D03*
X267575000Y-107575000D03*
X267575000Y-113375000D03*
D19*
X290162500Y-105250000D03*
X288337500Y-105250000D03*
D20*
X263700000Y-64750000D03*
X266000000Y-64750000D03*
D21*
X266000000Y-71050000D03*
D20*
X268300000Y-64750000D03*
D22*
X266000000Y-77250000D03*
X267900000Y-77250000D03*
X277800000Y-93800000D03*
X279700000Y-93800000D03*
D18*
X261150000Y-30800000D03*
X261150000Y-32625000D03*
D10*
X268200000Y-84700000D03*
X266300000Y-84700000D03*
D23*
X266025000Y-75150000D03*
X267850000Y-75150000D03*
D22*
X270950000Y-98250000D03*
X272850000Y-98250000D03*
X277800000Y-95900000D03*
X279700000Y-95900000D03*
D15*
X278225000Y-84525000D03*
X278225000Y-82625000D03*
D22*
X270950000Y-96125000D03*
X272850000Y-96125000D03*
M02*
